<svg width="101" height="89" viewBox="0 0 101 89" fill="none" xmlns="http://www.w3.org/2000/svg">
<path d="M30.7311 32.3325L49.7038 21.3786C49.9371 21.2438 50.2019 21.1729 50.4714 21.1729C50.7408 21.1729 51.0056 21.2438 51.2389 21.3786L70.2116 32.3325C70.4449 32.4673 70.6387 32.6611 70.7734 32.8944C70.9081 33.1277 70.9791 33.3924 70.9792 33.6618V55.5696C70.9792 56.1176 70.6862 56.6243 70.2116 56.8989L51.2389 67.8528C51.0056 67.9876 50.7408 68.0585 50.4714 68.0585C50.2019 68.0585 49.9371 67.9876 49.7038 67.8528L30.7311 56.8989C30.4978 56.7641 30.304 56.5704 30.1693 56.337C30.0345 56.1037 29.9636 55.839 29.9635 55.5696V33.6614C29.9639 33.113 30.2565 32.6067 30.7311 32.3321" fill="#8080F2"/>
<path d="M99.6578 42.8204L76.9648 3.34107C76.1405 1.91372 74.6179 0.860596 72.9694 0.860596H27.583C25.9346 0.860596 24.4111 1.91372 23.5869 3.34107L0.894288 42.7333C0.070068 44.1611 0.070068 45.963 0.894288 47.3908L23.5869 86.5467C24.4111 87.9741 25.9346 88.7038 27.583 88.7038H72.969C74.6175 88.7038 76.1405 87.9959 76.9644 86.5682L99.6574 47.3486C100.482 45.9216 100.482 44.2478 99.6574 42.8204H99.6578ZM80.8667 61.8049C80.8667 62.3849 80.5175 62.9221 80.0144 63.2127L51.1084 79.8897C50.8596 80.0323 50.5777 80.1073 50.2909 80.1073C50.004 80.1073 49.7222 80.0323 49.4733 79.8897L20.5451 63.2127C20.0424 62.9221 19.6904 62.3853 19.6904 61.8045V28.4497C19.6904 27.8689 20.0373 27.3325 20.5404 27.0419L49.4448 10.3645C49.6935 10.2217 49.9753 10.1465 50.2622 10.1465C50.549 10.1465 50.8308 10.2217 51.0795 10.3645L80.0093 27.0419C80.5128 27.3325 80.8667 27.8689 80.8667 28.4497V61.8045V61.8049Z" fill="#4B32C3"/>
</svg>
