<svg width="98" height="101" viewBox="0 0 98 101" fill="none" xmlns="http://www.w3.org/2000/svg">
<path d="M97.3839 60.5753C96.8026 58.8096 95.2796 57.5798 93.3101 57.2847C92.3814 57.1457 91.3179 57.2049 90.0593 57.4651C87.8656 57.919 86.2381 58.0918 85.0503 58.1252C89.5336 50.535 93.1791 41.8794 95.2777 33.7316C98.6713 20.5568 96.8579 14.5549 94.7388 11.8401C89.1306 4.65433 80.9485 0.794072 71.0775 0.675955C65.8118 0.61139 61.1891 1.65393 58.7776 2.40365C56.5324 2.00638 54.1182 1.78458 51.5852 1.74356C46.8368 1.66761 42.6414 2.70559 39.0565 4.83891C37.0719 4.16591 33.8866 3.21718 30.2082 2.61178C21.5568 1.18754 14.584 2.29731 9.48374 5.91032C3.30785 10.2848 0.444881 17.8853 0.974373 28.5006C1.14254 31.871 3.02265 42.1255 5.98296 51.8506C7.6843 57.4404 9.49851 62.0823 11.3752 65.6486C14.0367 70.7056 16.8845 73.6836 20.0815 74.7531C21.8734 75.3516 25.1291 75.7709 28.5534 72.9111C28.9875 73.4382 29.5666 73.962 30.335 74.4485C31.3111 75.0657 32.5045 75.57 33.6964 75.8689C37.9918 76.9457 42.0153 76.6764 45.4479 75.1671C45.4691 75.7793 45.4854 76.3642 45.499 76.8693C45.5218 77.6885 45.5445 78.4918 45.5744 79.243C45.7778 84.3225 46.1225 88.272 47.1436 91.0354C47.1996 91.1873 47.275 91.419 47.3545 91.6647C47.864 93.2287 48.7158 95.847 50.883 97.8975C53.1271 100.022 55.8416 100.673 58.3277 100.673C59.5745 100.673 60.7642 100.509 61.8076 100.285C65.5269 99.4855 69.7511 98.2678 72.8069 93.9047C75.696 89.7801 77.1004 83.5678 77.3545 73.7793C77.3875 73.5024 77.4178 73.2381 77.4469 72.9863L77.5075 72.469L78.1882 72.529L78.3635 72.5408C82.1518 72.714 86.7839 71.9084 89.6287 70.5833C91.8765 69.5373 99.08 65.7238 97.3839 60.5753Z" fill="black"/>
<path d="M90.9067 61.5765C79.6427 63.9065 78.8681 60.0824 78.8681 60.0824C90.7609 42.3864 95.7327 19.9241 91.4426 14.4265C79.7377 -0.569788 59.4765 6.52255 59.1383 6.70637L59.0296 6.72612C56.804 6.26277 54.3137 5.98704 51.5144 5.94108C46.4179 5.85752 42.5517 7.28101 39.6179 9.51194C39.6179 9.51194 3.47376 -5.41942 5.15503 28.2906C5.51257 35.462 15.4055 82.5535 27.2051 68.3297C31.5179 63.1283 35.6853 58.7307 35.6853 58.7307C37.7548 60.1093 40.2326 60.8127 42.83 60.5601L43.0319 60.3885C42.9691 61.0341 42.9978 61.6657 43.1126 62.4135C40.0728 65.8192 40.9662 66.417 34.8896 67.6715C28.7405 68.9423 32.3527 71.2043 34.7112 71.7961C37.5704 72.5127 44.1848 73.5283 48.6541 67.2544L48.4761 67.9704C49.6669 68.9271 50.5031 74.1926 50.363 78.9663C50.2229 83.7396 50.1293 87.0168 51.0675 89.5767C52.0064 92.1365 52.9415 97.8961 60.9301 96.1798C67.6048 94.7453 71.064 91.0283 71.5454 84.8277C71.8866 80.4197 72.6596 81.0715 72.7081 77.1303L73.3281 75.2648C74.0428 69.2894 73.4418 67.3616 77.5538 68.2583L78.5537 68.3464C81.58 68.4842 85.5417 67.8579 87.8668 66.7744C92.8731 64.4447 95.8426 60.5544 90.9059 61.5765H90.9067Z" fill="#336791"/>
<path d="M41.7336 31.4977C40.7185 31.356 39.7993 31.487 39.3342 31.8402C39.0728 32.0389 38.9918 32.269 38.9698 32.4274C38.9115 32.8471 39.2047 33.3112 39.3849 33.5505C39.8947 34.228 40.6394 34.6936 41.3764 34.7962C41.4832 34.8114 41.5896 34.8182 41.6953 34.8182C42.9244 34.8182 44.042 33.8585 44.1405 33.1502C44.2636 32.263 42.9793 31.6716 41.7336 31.4981V31.4977ZM75.3605 31.5258C75.2635 30.8304 74.0296 30.6321 72.8585 30.7954C71.6889 30.9587 70.5549 31.4882 70.6496 32.1851C70.7254 32.7271 71.7014 33.6522 72.8566 33.6522C72.9543 33.6522 73.0528 33.6458 73.152 33.6317C73.9232 33.5246 74.489 33.0336 74.7579 32.7506C75.167 32.3192 75.4041 31.8383 75.3605 31.5258Z" fill="white"/>
<path d="M94.6549 61.3118C94.2254 60.0095 92.843 59.5906 90.5462 60.0661C83.7268 61.4774 81.2846 60.4998 80.4828 59.9077C85.7834 51.8104 90.144 42.0223 92.4964 32.89C93.6107 28.5641 94.2262 24.5466 94.2765 21.272C94.3322 17.678 93.7217 15.0369 92.4627 13.4235C87.3867 6.91944 79.9367 3.43061 70.9186 3.3349C64.7188 3.26502 59.4807 4.85599 58.4653 5.3034C56.3269 4.77016 53.9957 4.44277 51.4577 4.401C46.8036 4.32542 42.7805 5.44278 39.4497 7.72043C38.0029 7.18036 34.2639 5.89322 29.6912 5.15452C21.786 3.87839 15.504 4.84536 11.0211 8.02997C5.67203 11.8302 3.20258 18.6233 3.68094 28.22C3.84191 31.4487 5.67657 41.3812 8.57174 50.8932C12.3827 63.4129 16.5255 70.5003 20.8842 71.9583C21.3943 72.1288 21.9825 72.2481 22.6313 72.2481C24.2213 72.2481 26.1708 71.5295 28.199 69.0844C30.6728 66.1085 33.2318 63.2049 35.8728 60.3771C37.5863 61.2993 39.4687 61.8143 41.3939 61.8659C41.3977 61.9164 41.4026 61.967 41.4071 62.0171C41.0757 62.4134 40.7512 62.8154 40.4337 63.223C39.0998 64.921 38.8222 65.2746 34.5283 66.1611C33.3068 66.414 30.0628 67.0844 30.0151 69.3647C29.9636 71.8561 33.8499 72.9025 34.2927 73.0134C35.8357 73.4008 37.3223 73.5918 38.74 73.5918C42.1877 73.5918 45.2219 72.4555 47.6467 70.2568C47.5721 79.1388 47.9413 87.8908 49.0049 90.5574C49.876 92.7405 52.0038 98.0755 58.7251 98.0751C59.7114 98.0751 60.7969 97.96 61.9911 97.7033C69.0059 96.1955 72.0522 93.0865 73.2305 86.2323C73.8611 82.5691 74.9432 73.822 75.4523 69.13C76.5264 69.4661 77.9092 69.6199 79.4041 69.6195C82.522 69.6195 86.1198 68.9552 88.376 67.9051C90.9106 66.7247 95.4844 63.8284 94.6549 61.3118ZM77.9497 29.6063C77.9266 30.9914 77.7365 32.2489 77.535 33.5615C77.318 34.9732 77.0938 36.4328 77.0373 38.2045C76.9817 39.9288 77.1964 41.7215 77.404 43.4552C77.8236 46.957 78.2542 50.562 76.5874 54.1192C76.3105 53.6272 76.0638 53.1187 75.8488 52.5966C75.6416 52.093 75.1917 51.284 74.5686 50.1644C72.145 45.8058 66.4694 35.5991 69.3748 31.4343C70.2403 30.1946 72.4366 28.92 77.9497 29.6063ZM71.2671 6.13971C79.3473 6.3186 85.7391 9.34976 90.2644 15.1485C93.7353 19.5963 89.9133 39.8346 78.8489 57.2943C78.7376 57.1524 78.6258 57.011 78.5133 56.8701L78.3732 56.6946C81.2324 51.9597 80.6733 47.2749 80.1757 43.1214C79.9711 41.4169 79.778 39.8069 79.8272 38.2945C79.878 36.6918 80.0893 35.3169 80.2938 33.9876C80.5449 32.3496 80.8006 30.6545 80.7301 28.6564C80.7828 28.4468 80.804 28.1991 80.7763 27.9052C80.5964 25.9891 78.4148 20.2545 73.9683 15.0642C71.536 12.2252 67.989 9.0482 63.1459 6.90538C65.229 6.47241 68.0776 6.06869 71.2671 6.13971ZM26.0526 67.2948C23.818 69.9891 22.2749 69.4725 21.7674 69.3031C18.4609 68.1972 14.6242 61.1891 11.2416 50.0763C8.31457 40.4605 6.60413 30.7913 6.46854 28.0799C6.04131 19.5048 8.11421 13.5287 12.6301 10.3171C19.9793 5.09109 32.0622 8.21911 36.9174 9.80552C36.8477 9.87464 36.775 9.93921 36.7061 10.0095C28.7387 18.0779 28.9277 31.863 28.9474 32.7058C28.9466 33.0309 28.9739 33.4912 29.011 34.1244C29.1481 36.443 29.4034 40.7583 28.7216 45.6451C28.0884 50.1864 29.4844 54.6312 32.5512 57.8401C32.8659 58.1688 33.1967 58.4816 33.5424 58.7774C32.1774 60.2434 29.2106 63.4854 26.0526 67.2948ZM34.5665 55.9035C32.0948 53.3171 30.9722 49.7196 31.4861 46.0325C32.2058 40.8703 31.9403 36.3743 31.7975 33.9588C31.7774 33.6207 31.7596 33.3245 31.7494 33.0909C32.9133 32.056 38.3071 29.1581 42.1536 30.0419C43.9088 30.4449 44.9784 31.6435 45.423 33.7051C47.7243 44.3785 45.7275 48.8271 44.1232 52.4021C43.7925 53.1386 43.48 53.8347 43.2134 54.5548L43.0066 55.1116C42.4832 56.5191 41.9961 57.8279 41.6942 59.0706C39.0665 59.063 36.5103 57.9373 34.5665 55.9031V55.9035ZM34.9699 70.2978C34.2025 70.1057 33.5125 69.7718 33.1076 69.4949C33.4458 69.3354 34.0476 69.1182 35.0915 68.9025C40.1429 67.8599 40.9231 67.1239 42.6267 64.9548C43.0172 64.4573 43.46 63.8937 44.0732 63.207L44.0739 63.2062C44.9871 62.1808 45.4048 62.3547 46.1623 62.67C46.7763 62.9244 47.3743 63.6962 47.6167 64.5454C47.7315 64.9465 47.8603 65.7076 47.4387 66.3001C43.88 71.2967 38.6941 71.2325 34.9699 70.2978ZM61.4063 94.9665C55.2266 96.2942 53.0386 93.1324 51.5967 89.5179C50.6661 87.1844 50.2085 76.6617 50.5331 65.041C50.5373 64.8865 50.5153 64.7372 50.4729 64.5967C50.435 64.3192 50.3772 64.0448 50.3002 63.7756C49.8177 62.0847 48.6416 60.6703 47.2308 60.0839C46.6702 59.8511 45.6416 59.4238 44.4053 59.741C44.6689 58.6517 45.1261 57.4215 45.6219 56.0896L45.8298 55.5294C46.0639 54.8978 46.3578 54.2434 46.6684 53.5506C48.3474 49.8104 50.6467 44.6873 48.1512 33.1137C47.2164 28.7787 44.0947 26.6617 39.3626 27.1535C36.5258 27.4479 33.9302 28.5956 32.6357 29.2538C32.3573 29.3951 32.1027 29.5318 31.8649 29.6648C32.2262 25.2971 33.5912 17.1345 38.6976 11.97C41.9128 8.71892 46.1945 7.11313 51.4114 7.19973C61.6907 7.36836 68.2825 12.6582 72.0026 17.0665C75.2083 20.8649 76.9442 24.6913 77.6369 26.7551C72.4272 26.2238 68.884 27.255 67.0879 29.83C63.1804 35.4312 69.2256 46.3026 72.131 51.5275C72.6639 52.4849 73.1237 53.3125 73.2684 53.6642C74.2145 55.9635 75.4394 57.4986 76.3336 58.619C76.6078 58.9624 76.8737 59.2955 77.076 59.5864C75.4981 60.0425 72.6639 61.0965 72.9222 66.3646C72.7139 69.008 71.2326 81.3841 70.48 85.7567C69.4866 91.5335 67.3667 93.685 61.4063 94.9668V94.9665ZM87.2007 65.3665C85.5872 66.1174 82.8871 66.6806 80.3222 66.8018C77.4892 66.9347 76.0469 66.4835 75.7075 66.2059C75.5485 62.9229 76.7669 62.58 78.0565 62.2169C78.2592 62.1599 78.4569 62.1041 78.6478 62.0372C78.7663 62.1341 78.8962 62.2302 79.0386 62.3244C81.3157 63.8314 85.377 63.9939 91.1109 62.8071L91.1738 62.7945C90.4004 63.5196 89.077 64.4926 87.2007 65.3665Z" fill="white"/>
</svg>
