<svg width="101" height="101" viewBox="0 0 101 101" fill="none" xmlns="http://www.w3.org/2000/svg">
<path d="M74.3618 19.8297H79.1237C80.4571 19.8297 81.5047 20.8773 81.5047 22.2107C81.5047 23.544 80.4571 24.5916 79.1237 24.5916H74.3618C73.0285 24.5916 71.9808 23.544 71.9808 22.2107C71.9808 20.8773 73.0285 19.8297 74.3618 19.8297Z" fill="#56B3B4"/>
<path d="M2.9332 96.0203H26.7427C28.076 96.0203 29.1236 97.0679 29.1236 98.4012C29.1236 99.7346 28.076 100.782 26.7427 100.782H2.9332C1.59986 100.782 0.552246 99.7346 0.552246 98.4012C0.552246 97.0679 1.59986 96.0203 2.9332 96.0203Z" fill="#EA5E5E"/>
<path d="M60.0761 57.925H74.3617C75.695 57.925 76.7426 58.9726 76.7426 60.3059C76.7426 61.6392 75.695 62.6867 74.3617 62.6867H60.0761C58.7428 62.6867 57.6952 61.6392 57.6952 60.3059C57.6952 58.9726 58.7428 57.925 60.0761 57.925Z" fill="#BF85BF"/>
<path d="M31.5047 57.925H50.5523C51.8857 57.925 52.9333 58.9726 52.9333 60.3059C52.9333 61.6392 51.8857 62.6867 50.5523 62.6867H31.5047C30.1713 62.6867 29.1237 61.6392 29.1237 60.3059C29.1237 58.9726 30.1713 57.925 31.5047 57.925Z" fill="#EA5E5E"/>
<path d="M2.9332 57.925H21.9808C23.3142 57.925 24.3618 58.9726 24.3618 60.3059C24.3618 61.6392 23.3142 62.6867 21.9808 62.6867H2.9332C1.59987 62.6867 0.552246 61.6392 0.552246 60.3059C0.552246 58.9726 1.59987 57.925 2.9332 57.925Z" fill="#56B3B4"/>
<path d="M2.9332 76.9725H26.7427C28.076 76.9725 29.1236 78.0202 29.1236 79.3535C29.1236 80.6868 28.076 81.7345 26.7427 81.7345H2.9332C1.59986 81.7345 0.552246 80.6868 0.552246 79.3535C0.552246 78.0202 1.59986 76.9725 2.9332 76.9725Z" fill="#BF85BF"/>
<path d="M2.9332 38.8773H26.7427C28.076 38.8773 29.1236 39.925 29.1236 41.2583C29.1236 42.5917 28.076 43.6393 26.7427 43.6393H2.9332C1.59986 43.6393 0.552246 42.5917 0.552246 41.2583C0.552246 39.925 1.59986 38.8773 2.9332 38.8773Z" fill="#BF85BF"/>
<path d="M26.7427 10.3059H74.3617C75.695 10.3059 76.7426 11.3535 76.7426 12.6869C76.7426 14.0202 75.695 15.0678 74.3617 15.0678H26.7427C25.4094 15.0678 24.3618 14.0202 24.3618 12.6869C24.3618 11.3535 25.4094 10.3059 26.7427 10.3059Z" fill="#F7BA3E"/>
<path d="M2.9332 10.3059H17.2189C18.5522 10.3059 19.5999 11.3535 19.5999 12.6869C19.5999 14.0202 18.5522 15.0678 17.2189 15.0678H2.9332C1.59986 15.0678 0.552246 14.0202 0.552246 12.6869C0.552246 11.3535 1.59986 10.3059 2.9332 10.3059Z" fill="#EA5E5E"/>
<path d="M21.9808 86.4963H26.7428C28.0761 86.4963 29.1237 87.544 29.1237 88.8773C29.1237 90.2106 28.0761 91.2583 26.7428 91.2583H21.9808C20.6475 91.2583 19.5999 90.2106 19.5999 88.8773C19.5999 87.544 20.6475 86.4963 21.9808 86.4963Z" fill="#F7BA3E"/>
<path d="M21.9808 29.3536H26.7428C28.0761 29.3536 29.1237 30.4012 29.1237 31.7345C29.1237 33.0678 28.0761 34.1154 26.7428 34.1154H21.9808C20.6475 34.1154 19.5999 33.0678 19.5999 31.7345C19.5999 30.4012 20.6475 29.3536 21.9808 29.3536Z" fill="#56B3B4"/>
<path d="M2.9332 86.4963H12.457C13.7904 86.4963 14.838 87.544 14.838 88.8773C14.838 90.2106 13.7904 91.2583 12.457 91.2583H2.9332C1.59987 91.2583 0.552246 90.2106 0.552246 88.8773C0.552246 87.544 1.59987 86.4963 2.9332 86.4963Z" fill="#56B3B4"/>
<path d="M2.9332 29.3536H12.457C13.7904 29.3536 14.838 30.4012 14.838 31.7345C14.838 33.0678 13.7904 34.1154 12.457 34.1154H2.9332C1.59987 34.1154 0.552246 33.0678 0.552246 31.7345C0.552246 30.4012 1.59987 29.3536 2.9332 29.3536Z" fill="#F7BA3E"/>
<path opacity="0.5" d="M64.8381 86.4963H69.5999C70.9332 86.4963 71.9808 87.544 71.9808 88.8773C71.9808 90.2106 70.9332 91.2583 69.5999 91.2583H64.8381C63.5047 91.2583 62.4572 90.2106 62.4572 88.8773C62.4572 87.544 63.5047 86.4963 64.8381 86.4963Z" fill="#D0D4D8"/>
<path opacity="0.5" d="M36.2665 86.4963H55.3142C56.6476 86.4963 57.6952 87.544 57.6952 88.8773C57.6952 90.2106 56.6476 91.2583 55.3142 91.2583H36.2665C34.9332 91.2583 33.8856 90.2106 33.8856 88.8773C33.8856 87.544 34.9332 86.4963 36.2665 86.4963Z" fill="#D0D4D8"/>
<path opacity="0.5" d="M79.1237 86.4963H98.1714C99.5047 86.4963 100.552 87.544 100.552 88.8773C100.552 90.2106 99.5047 91.2583 98.1714 91.2583H79.1237C77.7904 91.2583 76.7427 90.2106 76.7427 88.8773C76.7427 87.544 77.7904 86.4963 79.1237 86.4963Z" fill="#D0D4D8"/>
<path d="M41.0284 48.4011H79.1236C80.4569 48.4011 81.5045 49.4487 81.5045 50.782C81.5045 52.1153 80.4569 53.1629 79.1236 53.1629H41.0284C39.6951 53.1629 38.6475 52.1153 38.6475 50.782C38.6475 49.4487 39.6951 48.4011 41.0284 48.4011Z" fill="#56B3B4"/>
<path d="M17.2189 48.4011H31.5046C32.838 48.4011 33.8856 49.4487 33.8856 50.782C33.8856 52.1153 32.838 53.1629 31.5046 53.1629H17.2189C15.8856 53.1629 14.838 52.1153 14.838 50.782C14.838 49.4487 15.8856 48.4011 17.2189 48.4011Z" fill="#F7BA3E"/>
<path d="M2.9332 48.4011H7.69511C9.02844 48.4011 10.0761 49.4487 10.0761 50.782C10.0761 52.1153 9.02844 53.1629 7.69511 53.1629H2.9332C1.59987 53.1629 0.552246 52.1153 0.552246 50.782C0.552246 49.4487 1.59987 48.4011 2.9332 48.4011Z" fill="#EA5E5E"/>
<path d="M45.7904 19.8297H64.8379C66.1713 19.8297 67.2189 20.8773 67.2189 22.2107C67.2189 23.544 66.1713 24.5916 64.8379 24.5916H45.7904C44.457 24.5916 43.4094 23.544 43.4094 22.2107C43.4094 20.8773 44.457 19.8297 45.7904 19.8297Z" fill="#BF85BF"/>
<path d="M2.9332 19.8297H36.2665C37.5998 19.8297 38.6474 20.8773 38.6474 22.2107C38.6474 23.544 37.5998 24.5916 36.2665 24.5916H2.9332C1.59986 24.5916 0.552246 23.544 0.552246 22.2107C0.552246 20.8773 1.59986 19.8297 2.9332 19.8297Z" fill="#56B3B4"/>
<path d="M17.2189 67.4487H60.0762C61.4095 67.4487 62.4571 68.4964 62.4571 69.8297C62.4571 71.163 61.4095 72.2106 60.0762 72.2106H17.2189C15.8856 72.2106 14.838 71.163 14.838 69.8297C14.838 68.4964 15.8856 67.4487 17.2189 67.4487Z" fill="#F7BA3E"/>
<path d="M2.9332 67.4487H7.69511C9.02844 67.4487 10.0761 68.4964 10.0761 69.8297C10.0761 71.163 9.02844 72.2106 7.69511 72.2106H2.9332C1.59987 72.2106 0.552246 71.163 0.552246 69.8297C0.552246 68.4964 1.59987 67.4487 2.9332 67.4487Z" fill="#BF85BF"/>
<path d="M60.0761 29.3536H83.8856C85.2189 29.3536 86.2665 30.4012 86.2665 31.7345C86.2665 33.0678 85.2189 34.1154 83.8856 34.1154H60.0761C58.7428 34.1154 57.6952 33.0678 57.6952 31.7345C57.6952 30.4012 58.7428 29.3536 60.0761 29.3536Z" fill="#EA5E5E"/>
<path d="M60.0761 38.8773H83.8856C85.2189 38.8773 86.2665 39.925 86.2665 41.2583C86.2665 42.5917 85.2189 43.6393 83.8856 43.6393H60.0761C58.7428 43.6393 57.6952 42.5917 57.6952 41.2583C57.6952 39.925 58.7428 38.8773 60.0761 38.8773Z" fill="#F7BA3E"/>
<path d="M2.9332 0.782104H60.0761C61.4094 0.782104 62.457 1.82972 62.457 3.16306C62.457 4.49639 61.4094 5.54401 60.0761 5.54401H2.9332C1.59987 5.54401 0.552246 4.49639 0.552246 3.16306C0.552246 1.82972 1.59987 0.782104 2.9332 0.782104Z" fill="#56B3B4"/>
<path opacity="0.5" d="M69.5999 0.782104H98.1713C99.5047 0.782104 100.552 1.82972 100.552 3.16306C100.552 4.49639 99.5047 5.54401 98.1713 5.54401H69.5999C68.2666 5.54401 67.2189 4.49639 67.2189 3.16306C67.2189 1.82972 68.2666 0.782104 69.5999 0.782104Z" fill="#D0D4D8"/>
<path opacity="0.5" d="M69.5999 67.4487H79.1236C80.457 67.4487 81.5046 68.4964 81.5046 69.8297C81.5046 71.163 80.457 72.2106 79.1236 72.2106H69.5999C68.2665 72.2106 67.2189 71.163 67.2189 69.8297C67.2189 68.4964 68.2665 67.4487 69.5999 67.4487Z" fill="#D0D4D8"/>
<path opacity="0.5" d="M88.6475 67.4487H98.1714C99.5047 67.4487 100.552 68.4964 100.552 69.8297C100.552 71.163 99.5047 72.2106 98.1714 72.2106H88.6475C87.3142 72.2106 86.2665 71.163 86.2665 69.8297C86.2665 68.4964 87.3142 67.4487 88.6475 67.4487Z" fill="#D0D4D8"/>
<path opacity="0.5" d="M83.8856 57.925H98.1714C99.5047 57.925 100.552 58.9726 100.552 60.3059C100.552 61.6392 99.5047 62.6867 98.1714 62.6867H83.8856C82.5523 62.6867 81.5046 61.6392 81.5046 60.3059C81.5046 58.9726 82.5523 57.925 83.8856 57.925Z" fill="#D0D4D8"/>
<path opacity="0.5" d="M83.8856 10.3059H98.1714C99.5047 10.3059 100.552 11.3535 100.552 12.6869C100.552 14.0202 99.5047 15.0678 98.1714 15.0678H83.8856C82.5523 15.0678 81.5046 14.0202 81.5046 12.6869C81.5046 11.3535 82.5523 10.3059 83.8856 10.3059Z" fill="#D0D4D8"/>
<path opacity="0.5" d="M88.6475 48.4011H98.1714C99.5047 48.4011 100.552 49.4487 100.552 50.782C100.552 52.1153 99.5047 53.1629 98.1714 53.1629H88.6475C87.3142 53.1629 86.2665 52.1153 86.2665 50.782C86.2665 49.4487 87.3142 48.4011 88.6475 48.4011Z" fill="#D0D4D8"/>
<path opacity="0.5" d="M88.6475 19.8297H98.1714C99.5047 19.8297 100.552 20.8773 100.552 22.2107C100.552 23.544 99.5047 24.5916 98.1714 24.5916H88.6475C87.3142 24.5916 86.2665 23.544 86.2665 22.2107C86.2665 20.8773 87.3142 19.8297 88.6475 19.8297Z" fill="#D0D4D8"/>
<path opacity="0.5" d="M93.4094 29.3536H98.1713C99.5047 29.3536 100.552 30.4012 100.552 31.7345C100.552 33.0678 99.5047 34.1154 98.1713 34.1154H93.4094C92.0761 34.1154 91.0284 33.0678 91.0284 31.7345C91.0284 30.4012 92.0761 29.3536 93.4094 29.3536Z" fill="#D0D4D8"/>
<path opacity="0.5" d="M93.4094 38.8773H98.1713C99.5047 38.8773 100.552 39.925 100.552 41.2583C100.552 42.5917 99.5047 43.6393 98.1713 43.6393H93.4094C92.0761 43.6393 91.0284 42.5917 91.0284 41.2583C91.0284 39.925 92.0761 38.8773 93.4094 38.8773Z" fill="#D0D4D8"/>
<path opacity="0.5" d="M55.3143 76.9725H98.1713C99.5047 76.9725 100.552 78.0202 100.552 79.3535C100.552 80.6868 99.5047 81.7345 98.1713 81.7345H55.3143C53.981 81.7345 52.9333 80.6868 52.9333 79.3535C52.9333 78.0202 53.981 76.9725 55.3143 76.9725Z" fill="#D0D4D8"/>
<path opacity="0.5" d="M36.2665 76.9725H45.7903C47.1237 76.9725 48.1713 78.0202 48.1713 79.3535C48.1713 80.6868 47.1237 81.7345 45.7903 81.7345H36.2665C34.9332 81.7345 33.8856 80.6868 33.8856 79.3535C33.8856 78.0202 34.9332 76.9725 36.2665 76.9725Z" fill="#D0D4D8"/>
<path opacity="0.5" d="M74.3618 96.0203H98.1714C99.5048 96.0203 100.552 97.0679 100.552 98.4012C100.552 99.7346 99.5048 100.782 98.1714 100.782H74.3618C73.0285 100.782 71.9808 99.7346 71.9808 98.4012C71.9808 97.0679 73.0285 96.0203 74.3618 96.0203Z" fill="#D0D4D8"/>
<path opacity="0.5" d="M36.2665 96.0203H64.8379C66.1712 96.0203 67.2188 97.0679 67.2188 98.4012C67.2188 99.7346 66.1712 100.782 64.8379 100.782H36.2665C34.9332 100.782 33.8856 99.7346 33.8856 98.4012C33.8856 97.0679 34.9332 96.0203 36.2665 96.0203Z" fill="#D0D4D8"/>
<path opacity="0.5" d="M36.2665 29.3536H50.5523C51.8857 29.3536 52.9333 30.4012 52.9333 31.7345C52.9333 33.0678 51.8857 34.1154 50.5523 34.1154H36.2665C34.9332 34.1154 33.8856 33.0678 33.8856 31.7345C33.8856 30.4012 34.9332 29.3536 36.2665 29.3536Z" fill="#D0D4D8"/>
<path opacity="0.5" d="M36.2665 38.8773H50.5523C51.8857 38.8773 52.9333 39.925 52.9333 41.2583C52.9333 42.5917 51.8857 43.6393 50.5523 43.6393H36.2665C34.9332 43.6393 33.8856 42.5917 33.8856 41.2583C33.8856 39.925 34.9332 38.8773 36.2665 38.8773Z" fill="#D0D4D8"/>
</svg>
