<svg width="101" height="96" viewBox="0 0 101 96" fill="none" xmlns="http://www.w3.org/2000/svg">
<path d="M70.1178 66.6165C73.8081 66.2345 76.6077 63.0532 76.4803 59.2353C76.3534 55.4177 73.1717 52.3634 69.3542 52.3634H69.0999C65.1545 52.4907 62.1006 55.7993 62.228 59.7443C62.3553 61.6532 63.1186 63.3075 64.2639 64.4529C59.9374 72.9794 53.3202 79.215 43.3944 84.4325C36.6498 87.9958 29.651 89.2685 22.6522 88.3779C16.9256 87.6142 12.4717 85.0693 9.67167 80.8693C5.59979 74.6337 5.21815 67.8888 8.65409 61.1443C11.0721 56.3083 14.8893 52.745 17.3072 50.9634C16.7982 49.3091 16.0346 46.5095 15.6529 44.4736C-2.79904 57.8357 -0.890058 75.9064 4.70917 84.4325C8.90839 90.7958 17.4346 94.7407 26.8514 94.7407C29.3963 94.7407 31.9412 94.4861 34.4865 93.8501C50.7752 90.6685 63.119 80.9966 70.1178 66.6165ZM92.5147 50.8364C82.8432 39.5103 68.5909 33.2747 52.3022 33.2747H50.2662C49.1209 30.9841 46.703 29.4568 44.0307 29.4568H43.776C39.8315 29.5841 36.7776 32.8927 36.9045 36.838C37.0319 40.6556 40.2131 43.7099 44.0307 43.7099H44.285C47.0846 43.5825 49.5026 41.8009 50.5205 39.3829H52.8112C62.4827 39.3829 71.6448 42.1825 79.9167 47.6548C86.2792 51.8544 90.8604 57.3267 93.4053 63.9439C95.5686 69.2888 95.4413 74.5064 93.1507 78.9607C89.5878 85.7052 83.6069 89.3958 75.7171 89.3958C70.6268 89.3958 65.7913 87.8685 63.2459 86.7232C61.8463 87.9958 59.301 90.0318 57.5194 91.3048C62.9916 93.8497 68.5909 95.2497 73.9354 95.2497C86.1518 95.2497 95.187 88.5048 98.6229 81.7603C102.313 74.379 102.058 61.6532 92.5147 50.8364ZM27.8693 68.7794C27.9967 72.5974 31.1779 75.6513 34.9955 75.6513H35.2502C39.1951 75.5243 42.2491 72.2153 42.1217 68.2704C41.9948 64.4525 38.8131 61.3986 34.9955 61.3986H34.7412C34.4865 61.3986 34.1045 61.3986 33.8506 61.5255C28.633 52.872 26.4697 43.4552 27.2334 33.2743C27.742 25.6388 30.2873 19.0212 34.7412 13.5489C38.4315 8.84036 45.5576 6.54973 50.3936 6.42278C63.8823 6.16809 69.6085 22.9661 69.9905 29.7111C71.6448 30.0927 74.4444 30.9837 76.3534 31.62C74.826 11.0044 62.1006 0.314575 49.8846 0.314575C38.4315 0.314575 27.8693 8.58645 23.6697 20.8032C17.8162 37.0923 21.6338 52.745 28.76 65.0892C28.124 65.9798 27.742 67.3798 27.8693 68.7798V68.7794Z" fill="#764ABC"/>
</svg>
